<?xml version="1.0" encoding="utf-8"?>
<!-- Generator: Adobe Illustrator 21.0.0, SVG Export Plug-In . SVG Version: 6.00 Build 0)  -->
<svg version="1.1" id="Layer_1" xmlns="http://www.w3.org/2000/svg" xmlns:xlink="http://www.w3.org/1999/xlink" x="0px" y="0px"
	 width="296.8px" height="39.8px" viewBox="0 0 296.8 39.8" style="enable-background:new 0 0 296.8 39.8;" xml:space="preserve">
<style type="text/css">
	.st0{fill:#125AF5;}
	.st1{fill:#FFFFFF;}
	.st2{fill:#003AEE;}
</style>
<g>
	<path class="st0" d="M37.1,32.4H4.6c-2.5,0-4.6-2-4.6-4.6V4.6C0,2,2,0,4.6,0h32.5c2.5,0,4.6,2,4.6,4.6v23.3
		C41.6,30.3,39.6,32.4,37.1,32.4z"/>
	<g>
		<path class="st1" d="M19.3,27c-0.1,0-0.3,0-0.4-0.1C14.8,22.8,8.5,16.6,8,16.1c-0.1-0.1-0.2-0.1-0.2-0.2c-0.1-0.2,0-0.4,0.1-0.5
			l5.2-5.2c0.1-0.1,0.2-0.1,0.4-0.1s0.3,0.1,0.4,0.1l5.1,5.1L29.3,4.8c0.1-0.1,0.2-0.1,0.4-0.1s0.3,0,0.4,0.1l5.5,5.5
			c0.1,0.1,0.1,0.2,0.1,0.4s-0.1,0.3-0.1,0.4L19.7,26.9C19.6,27,19.5,27,19.3,27z"/>
		<path class="st2" d="M29.7,5.1l5.5,5.5L19.3,26.5c0,0-10.9-10.8-11.1-10.8l0,0l5.2-5.2l5.4,5.4L29.7,5.1 M8.3,15.7L8.3,15.7
			C8.3,15.7,8.3,15.7,8.3,15.7 M29.7,4.1c-0.3,0-0.5,0.1-0.7,0.3l-10,10l-4.7-4.7c-0.2-0.2-0.4-0.3-0.7-0.3S13,9.6,12.8,9.8L7.6,15
			c0,0,0,0,0,0c-0.2,0.2-0.3,0.4-0.3,0.7c0,0.3,0.2,0.6,0.4,0.8c0.7,0.6,6.9,6.7,10.9,10.7c0.2,0.2,0.4,0.3,0.7,0.3
			c0.3,0,0.5-0.1,0.7-0.3l15.9-15.9c0.2-0.2,0.3-0.4,0.3-0.7s-0.1-0.5-0.3-0.7l-5.5-5.5C30.2,4.2,29.9,4.1,29.7,4.1L29.7,4.1z"/>
	</g>
	<g>
		<polygon class="st2" points="3.3,34.8 4.1,36.4 5.9,36.7 4.6,38 4.9,39.8 3.3,38.9 1.7,39.8 2,38 0.7,36.7 2.5,36.4 		"/>
	</g>
	<g>
		<polygon class="st2" points="12.3,34.8 13.1,36.4 14.9,36.7 13.6,38 13.9,39.8 12.3,38.9 10.6,39.8 10.9,38 9.6,36.7 11.4,36.4 		
			"/>
	</g>
	<g>
		<polygon class="st2" points="21.2,34.8 22.1,36.4 23.9,36.7 22.6,38 22.9,39.8 21.2,38.9 19.6,39.8 19.9,38 18.6,36.7 20.4,36.4 
					"/>
	</g>
	<g>
		<polygon class="st2" points="30.2,34.8 31,36.4 32.8,36.7 31.5,38 31.8,39.8 30.2,38.9 28.6,39.8 28.9,38 27.6,36.7 29.4,36.4 		
			"/>
	</g>
	<g>
		<polygon class="st2" points="39.2,34.8 40,36.4 41.8,36.7 40.5,38 40.8,39.8 39.2,38.9 37.6,39.8 37.9,38 36.5,36.7 38.4,36.4 		
			"/>
	</g>
	<g>
		<path d="M68.8,9.4l-7.7,17.8h-4.1L49.4,9.4h4.4l5.4,12.7l5.5-12.7H68.8z"/>
		<path d="M84,23.9v3.3H70.3V9.4h13.4v3.3h-9.3v3.9h8.3v3.2h-8.3v4.1H84z"/>
		<path d="M98.6,27.2l-3.4-5H95h-3.6v5h-4.1V9.4H95c1.6,0,2.9,0.3,4.1,0.8c1.2,0.5,2.1,1.3,2.7,2.2c0.6,1,0.9,2.1,0.9,3.4
			s-0.3,2.5-1,3.4c-0.6,1-1.5,1.7-2.7,2.2l4,5.7H98.6z M97.6,13.6c-0.6-0.5-1.6-0.8-2.8-0.8h-3.4V19h3.4c1.2,0,2.2-0.3,2.8-0.8
			c0.6-0.5,1-1.3,1-2.3C98.6,14.9,98.3,14.1,97.6,13.6z"/>
		<path d="M106,9.4h4.1v17.8H106V9.4z"/>
		<path d="M118.4,12.7v4.7h8.2v3.3h-8.2v6.5h-4.1V9.4h13.4v3.3H118.4z"/>
		<path d="M130.5,9.4h4.1v17.8h-4.1V9.4z"/>
		<path d="M152.6,23.9v3.3h-13.8V9.4h13.4v3.3H143v3.9h8.3v3.2H143v4.1H152.6z"/>
		<path d="M155.9,9.4h8.1c1.9,0,3.6,0.4,5.1,1.1c1.5,0.7,2.6,1.8,3.5,3.1c0.8,1.3,1.2,2.9,1.2,4.7s-0.4,3.3-1.2,4.7
			c-0.8,1.3-2,2.4-3.5,3.1c-1.5,0.7-3.2,1.1-5.1,1.1h-8.1V9.4z M163.8,23.8c1.8,0,3.2-0.5,4.3-1.5c1.1-1,1.6-2.3,1.6-4
			c0-1.7-0.5-3-1.6-4c-1.1-1-2.5-1.5-4.3-1.5H160v11H163.8z"/>
		<path d="M200.2,27.2l0-10.7l-5.2,8.8h-1.9l-5.2-8.6v10.4h-3.9V9.4h3.4l6.7,11l6.6-11h3.4l0.1,17.8H200.2z"/>
		<path d="M211.9,26.3c-1.5-0.8-2.6-1.9-3.5-3.3s-1.3-3-1.3-4.7c0-1.7,0.4-3.3,1.3-4.7s2-2.5,3.5-3.3c1.5-0.8,3.1-1.2,5-1.2
			c1.8,0,3.5,0.4,5,1.2c1.5,0.8,2.6,1.9,3.5,3.3c0.8,1.4,1.3,3,1.3,4.7c0,1.7-0.4,3.3-1.3,4.7c-0.8,1.4-2,2.5-3.5,3.3
			c-1.5,0.8-3.1,1.2-5,1.2C215.1,27.5,213.4,27.1,211.9,26.3z M219.8,23.3c0.8-0.5,1.5-1.2,2-2s0.7-1.8,0.7-2.9
			c0-1.1-0.2-2.1-0.7-2.9s-1.1-1.5-2-2c-0.8-0.5-1.8-0.7-2.8-0.7c-1,0-2,0.2-2.8,0.7c-0.8,0.5-1.5,1.2-2,2s-0.7,1.8-0.7,2.9
			c0,1.1,0.2,2.1,0.7,2.9s1.1,1.5,2,2c0.8,0.5,1.8,0.7,2.8,0.7C218,24,218.9,23.8,219.8,23.3z"/>
		<path d="M246.2,9.4l-7.7,17.8h-4.1l-7.7-17.8h4.4l5.4,12.7l5.5-12.7H246.2z"/>
		<path d="M261.5,23.9v3.3h-13.8V9.4h13.4v3.3h-9.3v3.9h8.3v3.2h-8.3v4.1H261.5z"/>
		<path d="M276.1,27.2l-3.4-5h-0.2h-3.6v5h-4.1V9.4h7.7c1.6,0,2.9,0.3,4.1,0.8c1.2,0.5,2.1,1.3,2.7,2.2c0.6,1,0.9,2.1,0.9,3.4
			s-0.3,2.5-1,3.4c-0.6,1-1.5,1.7-2.7,2.2l4,5.7H276.1z M275,13.6c-0.6-0.5-1.6-0.8-2.8-0.8h-3.4V19h3.4c1.2,0,2.2-0.3,2.8-0.8
			c0.6-0.5,1-1.3,1-2.3C276,14.9,275.7,14.1,275,13.6z"/>
		<path d="M285.2,26.9c-1.3-0.4-2.4-0.9-3.2-1.5l1.4-3.1c0.8,0.6,1.7,1,2.7,1.3c1,0.3,2.1,0.5,3.1,0.5c1.2,0,2-0.2,2.6-0.5
			c0.6-0.3,0.8-0.8,0.8-1.4c0-0.4-0.2-0.8-0.5-1.1s-0.8-0.5-1.3-0.7c-0.5-0.2-1.2-0.4-2.1-0.6c-1.4-0.3-2.5-0.6-3.3-1
			c-0.9-0.3-1.6-0.8-2.2-1.5c-0.6-0.7-0.9-1.7-0.9-2.8c0-1,0.3-2,0.8-2.8c0.6-0.8,1.4-1.5,2.5-2c1.1-0.5,2.5-0.7,4.1-0.7
			c1.1,0,2.2,0.1,3.3,0.4c1.1,0.3,2,0.7,2.8,1.2l-1.3,3.1c-1.6-0.9-3.3-1.4-4.9-1.4c-1.2,0-2,0.2-2.6,0.6c-0.6,0.4-0.8,0.9-0.8,1.5
			s0.3,1.1,1,1.4c0.6,0.3,1.6,0.6,2.9,0.9c1.4,0.3,2.5,0.6,3.3,1c0.9,0.3,1.6,0.8,2.2,1.5c0.6,0.7,0.9,1.6,0.9,2.8
			c0,1-0.3,1.9-0.9,2.8c-0.6,0.8-1.4,1.5-2.6,2c-1.1,0.5-2.5,0.7-4.1,0.7C287.8,27.5,286.5,27.3,285.2,26.9z"/>
	</g>
</g>
</svg>
